<svg width="26" height="19" viewBox="0 0 26 19" fill="none" xmlns="http://www.w3.org/2000/svg">
<path d="M13 5.979C11.2303 5.979 9.79059 7.41875 9.79059 9.18837C9.79059 10.958 11.2303 12.3977 13 12.3977C14.7696 12.3977 16.2093 10.958 16.2093 9.18837C16.2093 7.41875 14.7696 5.979 13 5.979ZM13 10.8743C12.0703 10.8743 11.314 10.118 11.314 9.18837C11.314 8.25877 12.0704 7.50244 13 7.50244C13.9296 7.50244 14.6859 8.25877 14.6859 9.18837C14.6859 10.118 13.9296 10.8743 13 10.8743Z" fill="#161722"/>
<path d="M7.1955 3.38386L6.11828 2.30664C4.27741 4.14751 3.26361 6.59151 3.26361 9.18841C3.26361 11.7853 4.27741 14.2293 6.11833 16.0701L7.19555 14.9929C5.64236 13.4398 4.78705 11.3784 4.78705 9.18841C4.78705 6.99847 5.64236 4.93701 7.1955 3.38386Z" fill="#161722"/>
<path d="M4.88886 1.07717L3.81169 0C1.35368 2.45797 0 5.72112 0 9.18831C0 12.6555 1.35368 15.9187 3.81169 18.3766L4.88891 17.2994C2.71868 15.1292 1.52344 12.2486 1.52344 9.18831C1.52344 6.12803 2.71868 3.24746 4.88886 1.07717Z" fill="#161722"/>
<path d="M22.1882 0L21.111 1.07722C23.2813 3.24746 24.4765 6.12803 24.4765 9.18831C24.4765 12.2486 23.2813 15.1292 21.1111 17.2994L22.1883 18.3767C24.6463 15.9187 25.9999 12.6555 25.9999 9.18831C25.9999 5.72112 24.6463 2.45796 22.1882 0Z" fill="#161722"/>
<path d="M19.8818 2.30664L18.8046 3.38386C20.3577 4.93701 21.213 6.99847 21.213 9.18841C21.213 11.3784 20.3577 13.4398 18.8045 14.9929L19.8817 16.0701C21.7226 14.2293 22.7365 11.7853 22.7365 9.18841C22.7365 6.59151 21.7227 4.14751 19.8818 2.30664Z" fill="#161722"/>
<path d="M17.5751 4.61304L16.4979 5.69026C17.434 6.62631 17.9494 7.86857 17.9494 9.18817C17.9494 10.5078 17.434 11.75 16.4979 12.6861L17.5751 13.7633C18.7989 12.5395 19.4729 10.9147 19.4729 9.18817C19.4729 7.46161 18.799 5.83681 17.5751 4.61304Z" fill="#161722"/>
<path d="M9.50212 5.69026L8.4249 4.61304C7.20107 5.83681 6.5271 7.46161 6.5271 9.18817C6.5271 10.9147 7.20107 12.5395 8.42485 13.7633L9.50212 12.6861C8.56602 11.75 8.05054 10.5078 8.05054 9.18817C8.05054 7.86857 8.56607 6.62631 9.50212 5.69026Z" fill="#161722"/>
</svg>
